<?xml version="1.0" encoding="iso-8859-1"?>
<!-- Generator: Adobe Illustrator 19.0.0, SVG Export Plug-In . SVG Version: 6.00 Build 0)  -->
<svg version="1.1" id="Capa_1" xmlns="http://www.w3.org/2000/svg" xmlns:xlink="http://www.w3.org/1999/xlink" x="0px" y="0px"
	 viewBox="0 0 490 490" style="enable-background:new 0 0 490 490;" xml:space="preserve">
<g>
	<path d="M408.5,35.375h-35.788V0h-20.851v35.375h-96.436V0h-20.851v35.375h-96.436V0h-20.851v35.375H81.511
		C36.561,35.375,0,71.973,0,116.951v291.473C0,453.408,36.561,490,81.511,490H408.5c44.939,0,81.5-36.592,81.5-81.577V116.951
		C490,71.973,453.44,35.375,408.5,35.375z M469.149,408.423c0,33.475-27.203,60.707-60.648,60.707H81.511
		c-33.445,0-60.66-27.232-60.66-60.707V116.951c0-33.474,27.215-60.706,60.66-60.706h35.776v35.374h20.851V56.244h96.436v35.374
		h20.851V56.244h96.436v35.374h20.851V56.244H408.5c33.445,0,60.648,27.232,60.648,60.706V408.423z"/>
	<path d="M417.021,149.9H72.979c-5.762,0-10.425,4.673-10.425,10.435v250.515c0,5.762,4.663,10.435,10.425,10.435h344.043
		c5.763,0,10.425-4.673,10.425-10.435V160.335C427.447,154.573,422.784,149.9,417.021,149.9z M406.596,400.415H83.404V170.769
		h323.192V400.415z"/>
</g>
<g>
</g>
<g>
</g>
<g>
</g>
<g>
</g>
<g>
</g>
<g>
</g>
<g>
</g>
<g>
</g>
<g>
</g>
<g>
</g>
<g>
</g>
<g>
</g>
<g>
</g>
<g>
</g>
<g>
</g>
</svg>
