<svg id="Layer_1" data-name="Layer 1" xmlns="http://www.w3.org/2000/svg" viewBox="0 0 408.05 109.97"><defs><style>.cls-1{fill:none;}.cls-2{fill:#7673c0;}.cls-3{fill:#eb001b;}.cls-4{fill:#00a1df;}</style></defs><title>ms_hrz_rgb_pos</title><rect class="cls-1" width="408.05" height="109.97"/><path d="M566.15,315.92a1.53,1.53,0,0,1,.6.12,1.57,1.57,0,0,1,.49.33,1.53,1.53,0,0,1,.33.48,1.49,1.49,0,0,1,0,1.18,1.54,1.54,0,0,1-.33.48,1.6,1.6,0,0,1-.49.33,1.5,1.5,0,0,1-.6.12,1.55,1.55,0,0,1-1.44-.93,1.5,1.5,0,0,1,0-1.18,1.52,1.52,0,0,1,.82-.81A1.57,1.57,0,0,1,566.15,315.92Zm0,2.7a1.13,1.13,0,0,0,.46-.09,1.21,1.21,0,0,0,.37-.25,1.19,1.19,0,0,0,0-1.68,1.18,1.18,0,0,0-.37-.25,1.15,1.15,0,0,0-.46-.09,1.19,1.19,0,0,0-.47.09,1.19,1.19,0,0,0-.38,1.93,1.19,1.19,0,0,0,.38.25A1.18,1.18,0,0,0,566.15,318.62Zm.09-1.9a.64.64,0,0,1,.42.12.4.4,0,0,1,.15.33.38.38,0,0,1-.12.29.56.56,0,0,1-.33.14l.46.53h-.36l-.43-.53h-.14v.53h-.3v-1.41Zm-.35.26v.38h.35a.34.34,0,0,0,.19,0,.16.16,0,0,0,.07-.14.16.16,0,0,0-.07-.14.34.34,0,0,0-.19,0Zm-157.54,1.14v-15c0-5.66-3.61-9.47-9.42-9.52a9.27,9.27,0,0,0-8.41,4.26,8.79,8.79,0,0,0-7.91-4.26,7.92,7.92,0,0,0-7,3.56v-3h-5.21v23.94h5.26V304.86c0-4.16,2.3-6.36,5.86-6.36s5.21,2.25,5.21,6.31v13.32H392V304.86c0-4.16,2.4-6.36,5.86-6.36s5.26,2.25,5.26,6.31v13.32Zm29.35-12v-12h-5.21v2.91a9.08,9.08,0,0,0-7.56-3.51c-6.71,0-12,5.26-12,12.57s5.26,12.57,12,12.57a9.08,9.08,0,0,0,7.56-3.51v2.9h5.21Zm-19.38,0c0-4.21,2.75-7.66,7.26-7.66,4.31,0,7.21,3.31,7.21,7.66s-2.9,7.66-7.21,7.66C421.07,313.82,418.31,310.37,418.31,306.16Zm130.84-12.6a13.49,13.49,0,0,1,5.14,1,12.53,12.53,0,0,1,4.09,2.65,12.13,12.13,0,0,1,2.7,4,13.3,13.3,0,0,1,0,10,12.12,12.12,0,0,1-2.7,4,12.53,12.53,0,0,1-4.09,2.65,14.19,14.19,0,0,1-10.28,0,12.39,12.39,0,0,1-4.08-2.65,12.24,12.24,0,0,1-2.69-4,13.31,13.31,0,0,1,0-10,12.25,12.25,0,0,1,2.69-4,12.39,12.39,0,0,1,4.08-2.65A13.49,13.49,0,0,1,549.16,293.56Zm0,4.93a7.78,7.78,0,0,0-3,.56,7,7,0,0,0-2.37,1.57,7.34,7.34,0,0,0-1.58,2.43,8.71,8.71,0,0,0,0,6.23,7.34,7.34,0,0,0,1.58,2.42,7,7,0,0,0,2.38,1.58,8.15,8.15,0,0,0,5.95,0,7.18,7.18,0,0,0,2.39-1.58,7.26,7.26,0,0,0,1.59-2.42,8.71,8.71,0,0,0,0-6.23,7.27,7.27,0,0,0-1.59-2.43,7.18,7.18,0,0,0-2.39-1.57A7.78,7.78,0,0,0,549.16,298.49ZM466,306.16c0-7.46-4.66-12.57-11.37-12.57-7,0-11.92,5.11-11.92,12.57,0,7.61,5.11,12.57,12.27,12.57a14.55,14.55,0,0,0,9.82-3.36l-2.55-3.86a11.41,11.41,0,0,1-7,2.5c-3.36,0-6.41-1.55-7.16-5.86h17.78C466,307.51,466,306.86,466,306.16Zm-17.83-2.1c.55-3.46,2.65-5.81,6.36-5.81,3.36,0,5.51,2.1,6.06,5.81Zm42-8a17.9,17.9,0,0,0-9.77-2.5c-6.06,0-10,2.9-10,7.66,0,3.91,2.9,6.31,8.26,7.06l2.45.35c2.85.4,4.21,1.15,4.21,2.5,0,1.85-1.9,2.9-5.46,2.9a12.76,12.76,0,0,1-8-2.5l-2.45,4.06a17.27,17.27,0,0,0,10.37,3.11c6.91,0,10.92-3.26,10.92-7.81,0-4.21-3.16-6.41-8.36-7.16l-2.45-.35c-2.25-.3-4.06-.75-4.06-2.35,0-1.75,1.7-2.81,4.56-2.81A15.43,15.43,0,0,1,488,300.3Zm22.78-1.9h-8.51v-7.26h-5.26v7.26h-4.86v4.76h4.86v10.92c0,5.56,2.15,8.87,8.31,8.87a12.24,12.24,0,0,0,6.51-1.85l-1.5-4.46a9.62,9.62,0,0,1-4.61,1.35c-2.6,0-3.46-1.6-3.46-4V298.95H513Zm18-.6a7.06,7.06,0,0,0-6.31,3.51v-2.91h-5.16v23.94h5.21V304.71c0-4,1.7-6.16,5.11-6.16a8.48,8.48,0,0,1,3.26.6l1.6-4.91a11.13,11.13,0,0,0-3.71-.65Z" transform="translate(-191.97 -251.02)"/><g id="_Group_" data-name="&lt;Group&gt;"><rect class="cls-2" x="80.46" y="26.68" width="31.5" height="56.61"/><path id="_Path_" data-name="&lt;Path&gt;" class="cls-3" d="M274.44,306a35.94,35.94,0,0,1,13.75-28.3,36,36,0,1,0,0,56.61A35.94,35.94,0,0,1,274.44,306Z" transform="translate(-191.97 -251.02)"/><path class="cls-4" d="M343,328.31v-1.16h.47v-.24h-1.19v.24h.47v1.16Zm2.31,0v-1.4h-.36l-.42,1-.42-1h-.37v1.4H344v-1.05l.39.91h.27l.39-.91v1.06Z" transform="translate(-191.97 -251.02)"/><path class="cls-4" d="M346.43,306a36,36,0,0,1-58.25,28.3,36,36,0,0,0,0-56.61A36,36,0,0,1,346.43,306Z" transform="translate(-191.97 -251.02)"/></g></svg>