<svg xmlns="http://www.w3.org/2000/svg" width="222" height="173" viewBox="0 0 222 173" class="payment-logo mastercard">
  <g fill="none">
    <path fill="#010101" d="M40.82 171.37V160c0-4.27-2.73-7.15-7.12-7.2-2.55-.16-5 1.08-6.36 3.23-1.26-2.1-3.56-3.33-6-3.22-2.12-.1-4.13 1-5.3 2.7v-2.2h-3.9v18.1h4v-10c0-3.1 1.73-4.8 4.42-4.8 2.7 0 3.94 1.7 3.94 4.8v10.1h4v-10c0-3.1 1.82-4.8 4.43-4.8 2.6 0 4 1.7 4 4.8v10.1h4l-.1-.1zm58.86-18.1h-6.4v-5.5h-4v5.5H85.6v3.6h3.67v8.25c0 4.2 1.62 6.7 6.28 6.7 1.74 0 3.44-.48 4.92-1.4l-1.14-3.37c-1.06.62-2.25.97-3.48 1-2 0-2.6-1.2-2.6-3v-8.18h6.43v-3.6h-.02zm33.6-.46c-1.96 0-3.8 1-4.77 2.7v-2.2h-3.9v18.1h4v-10.1c0-3 1.3-4.6 3.9-4.6.9 0 1.7.2 2.5.5l1.2-3.7c-.9-.3-1.8-.5-2.8-.5zm-50.8 1.9c-2.22-1.3-4.8-1.9-7.38-1.9-4.58 0-7.54 2.2-7.54 5.8 0 3 2.2 4.8 6.25 5.4l1.9.3c2.2.3 3.2.9 3.2 1.9 0 1.4-1.4 2.2-4.1 2.2-2.1.1-4.2-.6-6-1.9l-1.9 3.1c2.3 1.6 5.1 2.4 7.9 2.4 5.3 0 8.3-2.4 8.3-5.9 0-3.2-2.4-4.8-6.3-5.4l-1.7-.2c-1.7-.2-3.1-.5-3.1-1.8 0-1.2 1.3-2.1 3.5-2.1 2 0 3.9.6 5.7 1.6l1.68-3.2zm105.54-1.9c-1.96 0-3.8 1-4.77 2.7v-2.2h-3.9v18.1h3.94v-10.1c0-3 1.2-4.6 3.8-4.6.8 0 1.7.2 2.4.5l1.2-3.7c-.9-.3-1.9-.5-2.8-.5zm-50.76 9.6c0 5.5 3.83 9.5 9.66 9.5 2.36.2 4.7-.6 6.5-2.1l-1.86-3.2c-1.36 1.1-3.02 1.6-4.73 1.7-3.14 0-5.45-2.3-5.45-5.8s2.3-5.7 5.45-5.8c1.7.1 3.37.6 4.73 1.7l1.9-3.1c-1.83-1.5-4.16-2.3-6.52-2.2-5.83 0-9.66 4-9.66 9.5h-.02zm36.9 0v-9h-3.95v2.2c-1.3-1.7-3.5-2.7-5.7-2.6-5.1 0-9 4-9 9.5s4 9.5 9.1 9.5c2.2.1 4.4-.9 5.7-2.6v2.2h4v-9zm-14.67 0c0-3.2 2-5.8 5.4-5.8 3.2 0 5.4 2.5 5.4 5.8s-2.2 5.8-5.5 5.8c-3.4 0-5.5-2.6-5.5-5.8zm-47.6-9.5c-5.3 0-9 3.9-9 9.5s3.8 9.5 9.3 9.5c2.7.1 5.3-.8 7.4-2.5l-2-2.9c-1.5 1.2-3.4 1.9-5.3 1.9-2.6 0-4.9-1.1-5.4-4.4h13.4c0-.5.1-1 .1-1.5 0-5.6-3.6-9.5-8.6-9.5zm-.1 3.5c2.5 0 4.1 1.6 4.6 4.4H107c.44-2.6 2-4.4 4.83-4.4zm98.8 6V146h-3.9v9.5c-1.4-1.77-3.5-2.76-5.8-2.66-5.1 0-9.1 4-9.1 9.5 0 5.52 4 9.52 9 9.52 2.2.1 4.3-.9 5.7-2.65v2.2h3.9v-9h-.1zm-14.7 0c0-3.1 2.1-5.8 5.5-5.8 3.2 0 5.4 2.5 5.4 5.8s-2.2 5.8-5.5 5.8c-3.4 0-5.5-2.6-5.5-5.8zm-133 0v-9H59v2.2c-1.36-1.7-3.5-2.7-5.72-2.6-5.08 0-9.05 4-9.05 9.5s4 9.5 9.04 9.5c2.22.1 4.36-.9 5.72-2.6v2.2h4v-9.1zm-14.7 0c0-3.1 2.1-5.8 5.5-5.8 3.2 0 5.4 2.5 5.4 5.8s-2.2 5.8-5.5 5.8c-3.4 0-5.5-2.6-5.5-5.8zm168.9 6.5c.2 0 .5.1.7.2.2.1.4.3.5.4.1.2.3.4.4.6.2.5.2 1 0 1.4-.1.2-.3.4-.4.6-.2.2-.4.3-.6.4-.3.1-.5.2-.8.2-.7 0-1.4-.4-1.7-1.1-.2-.4-.2-.9 0-1.4.1-.2.2-.4.4-.6.2-.1.4-.3.6-.4.2-.1.5-.1.7-.1zm0 3.2c.2 0 .4 0 .5-.1l.4-.3c.2-.2.4-.6.4-1s-.2-.7-.4-1l-.5-.3c-.2-.1-.4-.1-.6-.1-.2 0-.4.1-.6.1l-.5.3c-.3.3-.44.7-.44 1 0 .4.2.8.45 1 .16.2.3.3.48.3.2.1.33.2.52.1v.1zm.1-2.2c.1 0 .3.1.5.2.1.1.1.2.1.4 0 .1-.1.2-.2.3-.1.1-.3.2-.4.2l.5.6h-.5l-.5-.6h-.2v.7h-.4V170h.74zm-.5.3v.5h.6s.1-.1 0-.1c0-.1-.07-.1-.1-.2h-.68z"/>
    <path fill="#F16022" d="M81.2 15.3h59.67v107.2H81.2z"/>
    <path fill="#E91D25" d="M85 68.9c-.04-20.93 9.55-40.7 26-53.62C83.02-6.7 42.87-3.5 18.74 22.63c-24.12 26.12-24.12 66.4 0 92.52 24.13 26.13 64.28 29.33 92.24 7.35-16.45-12.93-26.04-32.7-26-53.6z"/>
    <path fill="#F69E1E" d="M221.36 68.9c0 26.1-14.9 49.9-38.4 61.3-23.47 11.42-51.4 8.42-71.93-7.7 16.44-12.94 26.04-32.7 26.04-53.62 0-20.92-9.6-40.68-26.04-53.6C131.56-.87 159.5-3.87 182.98 7.54c23.48 11.4 38.38 35.23 38.38 61.34zm-6.54 42.25v-2.2h.9v-.46h-2.26v.4h.9v2.2h.46zm4.38 0v-2.66h-.7l-.78 1.8-.77-1.8h-.7v2.6h.5v-2l.75 1.7h.5l.76-1.8v2h.5-.06z"/>
  </g>
</svg>