<svg xmlns="http://www.w3.org/2000/svg" id="svg2" width="732" height="225" version="1" viewBox="0 0 88 27" class="payment-logo visa">
    <path fill="#004686" d="M31 26.6l4.5-26h7l-4.4 26h-7z"/>
    <path fill="#004686" d="M64 1c-1.4-.4-3.6-1-6.4-1-7 0-12 3.5-12 8.6 0 3.8 3.5 6 6.2 7 2.8 1.4 3.7 2.2 3.7 3.4 0 1.7-2.2 2.5-4.3 2.5-2.8 0-4.3-.4-6.7-1.3l-1-.5-1 6c1.8.6 5 1.3 8 1.3C58 27 63 23.5 63 18c0-3-2-5.2-6-7-2.5-1.3-4-2-4-3.3 0-1 1.3-2.2 4-2.2 2.4 0 4 .4 5.4 1l.6.3L64 1z"/>
    <path fill="#004686" d="M82.3.5h-5.5c-1.7 0-3 .4-3.8 2l-10.5 24H70l1.4-3.8h9.2l.8 4H88L82.3.4m-8.8 16.8l2.8-7.3 1-2.6.5 2.3 1.6 7.5h-6z"/>
    <path fill="#004686" d="M25 .5l-7 17.8-.7-3.6C16 10.5 12 6 7.3 3.7l6.5 23h7.6L32.6.4H25z"/>
    <path fill="#ef9b11" d="M11.6.5H0V1c9 2.2 15 7.4 17.3 13.7l-2.5-12C14.4 1 13 .5 11.6.5z"/>
</svg>