<?xml version="1.0" encoding="iso-8859-1"?>
<!-- Generator: Adobe Illustrator 19.0.0, SVG Export Plug-In . SVG Version: 6.00 Build 0)  -->
<svg version="1.1" id="Layer_1" xmlns="http://www.w3.org/2000/svg" xmlns:xlink="http://www.w3.org/1999/xlink" x="0px" y="0px"
	 viewBox="0 0 512.002 512.002" style="enable-background:new 0 0 512.002 512.002;" xml:space="preserve">
<g>
	<g>
		<path d="M319.826,102.048c-34.953-34.927-91.776-34.901-126.729,0c-5.001,5.001-5.001,13.099,0,18.099
			c5,5.001,13.099,5.001,18.099,0c24.926-24.951,65.553-24.977,90.522,0c2.5,2.5,5.777,3.746,9.054,3.746
			c3.277,0,6.554-1.246,9.054-3.746C324.827,115.146,324.827,107.048,319.826,102.048z"/>
	</g>
</g>
<g>
	<g>
		<path d="M508.251,178.361c-25.549-25.549-70.025-25.549-95.573,0c-5,5-5,13.116,0,18.099c5.001,5.001,13.099,5.001,18.099,0
			c15.846-15.872,43.477-15.872,59.375,0c2.5,2.5,5.777,3.746,9.054,3.746c3.277,0,6.554-1.246,9.054-3.746
			C513.251,191.46,513.251,183.345,508.251,178.361z"/>
	</g>
</g>
<g>
	<g>
		<path d="M468.118,244.503c-9.122-15.59-23.799-26.667-41.276-31.215c-6.929-1.886-13.85,2.321-15.625,9.165
			c-1.775,6.852,2.321,13.841,9.173,15.616c10.871,2.825,19.977,9.711,25.651,19.379c5.675,9.66,7.253,20.975,4.403,31.838
			c-1.775,6.835,2.321,13.841,9.173,15.616c1.075,0.29,2.176,0.41,3.226,0.41c5.7,0,10.897-3.814,12.373-9.574
			C479.766,278.252,477.266,260.051,468.118,244.503z"/>
	</g>
</g>
<g>
	<g>
		<path d="M381.044,84.435c-5.649-4.164-13.653-3.046-17.929,2.637c-4.224,5.675-3.021,13.688,2.628,17.911
			c18.569,13.815,22.451,40.166,8.644,58.752c-4.224,5.675-3.021,13.696,2.654,17.911c2.278,1.698,4.949,2.526,7.629,2.526
			c3.9,0,7.774-1.783,10.274-5.163C417.166,149.1,410.919,106.673,381.044,84.435z"/>
	</g>
</g>
<g>
	<g>
		<path d="M352.876,168.983c-25.873-26.837-68.77-27.631-95.573-1.758c-5.103,4.898-5.248,12.996-0.35,18.099
			c4.949,5.103,13.047,5.248,18.099,0.324c16.725-16.085,43.349-15.565,59.375,1.109c2.526,2.603,5.871,3.908,9.225,3.908
			c3.2,0,6.4-1.186,8.875-3.584C357.629,182.184,357.774,174.086,352.876,168.983z"/>
	</g>
</g>
<g>
	<g>
		<path d="M402.42,241.559c-3.174-6.298-10.948-8.849-17.203-5.641c-6.323,3.2-8.849,10.897-5.649,17.212
			c5.077,10.01,5.948,21.385,2.449,32.034c-3.499,10.658-10.923,19.319-20.949,24.38c-6.298,3.2-8.849,10.897-5.649,17.203
			c2.253,4.463,6.75,7.023,11.426,7.023c1.954,0,3.925-0.435,5.777-1.374c16.128-8.166,28.1-22.101,33.724-39.253
			C411.969,275.991,410.569,257.678,402.42,241.559z"/>
	</g>
</g>
<g>
	<g>
		<path d="M238.154,0.015c-23.953,0.461-46.276,10.214-62.848,27.46c-16.572,17.237-25.472,39.91-25.003,63.863
			c0.145,6.98,5.845,12.544,12.791,12.544c0.077,0,0.179,0,0.247,0c7.074-0.137,12.672-5.973,12.553-13.047
			c-0.324-17.101,5.999-33.314,17.852-45.611c11.853-12.314,27.776-19.285,44.902-19.61c7.074-0.137,12.672-5.973,12.552-13.047
			C251.047,5.501,244.477-0.267,238.154,0.015z"/>
	</g>
</g>
<g>
	<g>
		<path d="M195.342,259.564c-15.778-6.622-27.998-18.987-34.475-34.799c-6.451-15.812-6.349-33.212,0.273-48.99
			c2.748-6.528-0.324-14.029-6.852-16.759c-6.477-2.739-14.029,0.316-16.751,6.835c-9.267,22.084-9.395,46.438-0.367,68.582
			c9.054,22.153,26.197,39.45,48.273,48.725c1.604,0.691,3.302,0.998,4.949,0.998c5.001,0,9.754-2.953,11.802-7.834
			C204.942,269.796,201.87,262.295,195.342,259.564z"/>
	</g>
</g>
<g>
	<g>
		<path d="M132.75,140.072c-2.176-6.716-9.446-10.385-16.154-8.166c-46.925,15.428-72.576,66.159-57.148,113.101
			c1.749,5.385,6.776,8.798,12.151,8.798c1.323,0,2.671-0.196,4.002-0.64c6.699-2.21,10.377-9.438,8.149-16.162
			c-11-33.519,7.33-69.751,40.849-80.768C131.299,154.024,134.977,146.796,132.75,140.072z"/>
	</g>
</g>
<g>
	<g>
		<path d="M129.797,92.038c-17.852-16.009-41.003-24.098-64.7-22.775C41.196,70.56,19.248,81.115,3.273,98.95
			c-4.727,5.265-4.275,13.346,0.973,18.074c2.449,2.185,5.504,3.26,8.55,3.26c3.499,0,6.997-1.434,9.523-4.267
			c11.426-12.74,27.102-20.267,44.177-21.197c16.87-0.887,33.451,4.847,46.199,16.265c5.274,4.727,13.346,4.284,18.074-0.973
			C135.497,104.846,135.045,96.748,129.797,92.038z"/>
	</g>
</g>
<g>
	<g>
		<path d="M417.874,469.305c-38.332-42.743-91.921-68.284-148.591-71.799c4.984-89.421,63.94-165.043,117.009-174.788
			c6.946-1.271,11.571-7.936,10.3-14.899c-1.297-6.972-8.098-11.614-14.899-10.274c-44.868,8.226-93.201,53.052-119.236,115.797
			c-12.1-83.669-42.197-144.563-94.711-194.611c-5.077-4.847-13.175-4.702-18.099,0.435c-4.873,5.111-4.676,13.21,0.452,18.091
			c63.113,60.16,90.974,138.743,92.757,260.241c-56.721,3.482-110.37,29.03-148.727,71.808c-6.741,7.518-8.439,18.304-4.318,27.529
			c4.104,9.225,13.261,15.164,23.364,15.164h285.645c10.103,0,19.26-5.939,23.373-15.164
			C426.314,487.609,424.615,476.832,417.874,469.305z M113.174,486.397c35.157-39.194,86.025-64,142.822-64
			s107.665,24.806,142.822,64H113.174z"/>
	</g>
</g>
<g>
</g>
<g>
</g>
<g>
</g>
<g>
</g>
<g>
</g>
<g>
</g>
<g>
</g>
<g>
</g>
<g>
</g>
<g>
</g>
<g>
</g>
<g>
</g>
<g>
</g>
<g>
</g>
<g>
</g>
</svg>
