<?xml version="1.0" encoding="iso-8859-1"?>
<!-- Generator: Adobe Illustrator 19.0.0, SVG Export Plug-In . SVG Version: 6.00 Build 0)  -->
<svg version="1.1" id="Layer_1" xmlns="http://www.w3.org/2000/svg" xmlns:xlink="http://www.w3.org/1999/xlink" x="0px" y="0px"
	 viewBox="0 0 512.004 512.004" style="enable-background:new 0 0 512.004 512.004;" xml:space="preserve">
<polygon style="fill:#CEE8FA;" points="28.562,319.266 84.495,402.63 413.523,402.63 483.441,277.316 96.69,312.983 "/>
<g>
	<path style="fill:#2D527C;" d="M392.296,172.347L268.665,7.76c-1.617-3.259-4.48-5.843-8.091-7.047
		c-1.501-0.5-3.042-0.727-4.564-0.711c-1.529-0.018-3.076,0.208-4.584,0.711c-3.611,1.205-6.474,3.79-8.091,7.047L104.81,192.178
		c-3.284,4.371-3.716,10.255-1.108,15.059c2.455,4.524,7.182,7.307,12.278,7.307c0.317,0,0.636-0.011,0.954-0.032l70.084-4.778
		c7.7-0.525,13.516-7.193,12.992-14.893s-7.191-13.509-14.893-12.992l-39.624,2.701l96.383-128.313v134.8
		c0,3.905,1.634,7.633,4.507,10.278c2.591,2.387,5.974,3.696,9.468,3.696c0.38,0,0.763-0.015,1.146-0.048l125.271-10.299
		c5.071-0.416,9.517-3.558,11.602-8.2C395.956,181.823,395.352,176.416,392.296,172.347z M270.126,175.843V56.239l84.616,112.648
		L270.126,175.843z"/>
	<path style="fill:#2D527C;" d="M495.153,269.694c-2.828-4.346-7.833-6.762-12.996-6.293l-52.87,4.876V228.27
		c0-3.905-1.634-7.632-4.507-10.278c-2.873-2.647-6.726-3.969-10.614-3.649L95.545,240.539c-7.692,0.633-13.416,7.38-12.783,15.073
		c0.633,7.693,7.398,13.423,15.073,12.783l303.502-24.952v27.414L27.279,305.353c-4.911,0.453-9.219,3.46-11.336,7.914
		s-1.731,9.693,1.016,13.789l42.776,63.754c-16.04,4.299-27.886,18.951-27.886,36.324c0,20.736,16.874,37.607,37.617,37.607h14.975
		c-0.82,3.083-1.263,6.319-1.263,9.656c0,20.736,16.873,37.607,37.611,37.607H375.29c7.718,0,13.975-6.256,13.975-13.975
		c0-7.718-6.256-13.975-13.975-13.975H120.786c-5.329,0-9.662-4.332-9.662-9.658c0-5.324,4.335-9.656,9.662-9.656h4.778h91.304
		c7.718,0,13.975-6.256,13.975-13.975c0-7.718-6.256-13.975-13.975-13.975h-91.304h-4.778H69.463c-5.33,0-9.668-4.332-9.668-9.658
		c0-5.326,4.338-9.658,9.668-9.658h373.081c5.328,0,9.662,4.332,9.662,9.658c0,5.326-4.335,9.658-9.662,9.658H304.511
		c-7.718,0-13.975,6.256-13.975,13.975c0,7.718,6.256,13.975,13.975,13.975h138.033c20.738,0,37.611-16.87,37.611-37.607
		s-16.873-37.607-37.611-37.607h-5.706l58.805-105.399C498.171,279.596,497.981,274.04,495.153,269.694z M405.319,388.656H91.948
		L53.277,331.02l363.458-33.519c0.003,0,0.004,0,0.007,0l41.572-3.833L405.319,388.656z"/>
</g>
<g>
</g>
<g>
</g>
<g>
</g>
<g>
</g>
<g>
</g>
<g>
</g>
<g>
</g>
<g>
</g>
<g>
</g>
<g>
</g>
<g>
</g>
<g>
</g>
<g>
</g>
<g>
</g>
<g>
</g>
</svg>
