<?xml version="1.0" encoding="iso-8859-1"?>
<!-- Generator: Adobe Illustrator 19.0.0, SVG Export Plug-In . SVG Version: 6.00 Build 0)  -->
<svg version="1.1" id="Layer_1" xmlns="http://www.w3.org/2000/svg" xmlns:xlink="http://www.w3.org/1999/xlink" x="0px" y="0px"
	 viewBox="0 0 512 512" style="enable-background:new 0 0 512 512;" xml:space="preserve">
<g>
	<path style="fill:#CEE8FA;" d="M485.756,310.256H422.93v-17.237c0-13.328,10.805-24.133,24.133-24.133h38.693"/>
	<circle style="fill:#CEE8FA;" cx="118.021" cy="348.965" r="48.714"/>
	<path style="fill:#CEE8FA;" d="M69.308,348.968c0-15.523,7.27-29.34,18.581-38.261H34.085c-11.454,0-20.739,9.285-20.739,20.739
		l0,0c0,11.454,9.285,20.739,20.739,20.739h35.341C69.357,351.121,69.308,350.05,69.308,348.968z"/>
	<circle style="fill:#CEE8FA;" cx="374.816" cy="348.965" r="48.714"/>
	<path style="fill:#CEE8FA;" d="M326.221,352.185c-0.069-1.064-0.117-2.134-0.117-3.216c0-15.523,7.27-29.34,18.581-38.261H148.156
		c11.311,8.921,18.581,22.738,18.581,38.261c0,1.082-0.048,2.151-0.117,3.216H326.221z"/>
	<path style="fill:#CEE8FA;" d="M477.915,310.708h-72.964c11.311,8.921,18.581,22.738,18.581,38.261
		c0,1.082-0.048,2.151-0.117,3.216h54.501c11.454,0,20.739-9.285,20.739-20.739l0,0
		C498.654,319.992,489.369,310.708,477.915,310.708z"/>
</g>
<path style="fill:#2D527C;" d="M500.418,305.877c-0.036-8.806-0.069-19.571-0.048-21.19c0.252-5.568-0.199-11.051-1.297-16.411
	c-0.081-1.787-0.508-3.479-1.225-5.017c-0.755-2.624-1.66-5.217-2.747-7.766c-9.433-22.125-30.129-37.567-54.012-40.3l-68.205-7.796
	l-36.918-72.275c-0.16-0.315-0.334-0.622-0.518-0.922c-12.611-20.496-35.392-33.228-59.45-33.228h-116.37
	c-39.689,0-74.76,26.722-85.285,64.976l-1.017,3.685c-1.959,7.106,2.211,14.455,9.317,16.415c7.106,1.958,14.455-2.21,16.415-9.317
	l1.018-3.694c7.35-26.715,31.839-45.373,59.552-45.373h116.37c14.693,0,28.614,7.69,36.454,20.105l30,58.729H213.694v-47.954
	c0-7.371-5.975-13.346-13.346-13.346c-7.371,0-13.346,5.975-13.346,13.346v47.954h-40.039c-7.371,0-13.346,5.975-13.346,13.346
	s5.975,13.346,13.346,13.346h40.039v64.17h-34.555c-9.858-6.597-21.698-10.453-34.424-10.453s-24.566,3.856-34.424,10.453H38.254
	V253.51c0-1.974,1.251-3.741,3.112-4.396l25.539-8.999c6.952-2.449,10.602-10.071,8.152-17.023
	c-2.45-6.952-10.07-10.604-17.023-8.152l-25.539,8.999c-12.521,4.412-20.935,16.296-20.935,29.573v52.383
	C4.479,312.144,0,321.28,0,331.446c0,18.796,15.291,34.085,34.085,34.085h24.139c7.267,26.201,31.314,45.497,59.798,45.497
	s52.531-19.296,59.798-45.497h137.2c7.267,26.201,31.314,45.497,59.798,45.497c28.484,0,52.531-19.296,59.798-45.497h43.299
	c18.794,0,34.085-15.291,34.085-34.085C512,321.271,507.512,312.127,500.418,305.877z M473.726,282.233
	c-0.007,0.467-0.007,0.933-0.028,1.401c-0.012,0.288-0.045,1.044-0.007,13.276h-37.415v-3.892c0-5.948,4.838-10.786,10.786-10.786
	h26.663V282.233z M213.694,233.192h149.804l74.556,8.522c10.219,1.169,19.453,6.223,25.985,13.827h-16.976
	c-20.665,0-37.479,16.814-37.479,37.479v4.343h-0.342c-9.858-6.597-21.698-10.453-34.424-10.453
	c-12.726,0-24.566,3.856-34.424,10.453h-126.7V233.192z M317.945,324.055c-1.239,2.828-2.238,5.762-3.042,8.76
	c-0.104,0.384-0.207,0.769-0.303,1.156c-0.161,0.651-0.314,1.305-0.454,1.963c-0.12,0.559-0.226,1.125-0.331,1.69
	c-0.075,0.406-0.171,0.806-0.238,1.215H179.263c-0.067-0.408-0.163-0.81-0.239-1.216c-0.104-0.565-0.211-1.128-0.331-1.687
	c-0.14-0.659-0.294-1.315-0.455-1.967c-0.096-0.386-0.199-0.77-0.302-1.153c-0.803-2.999-1.803-5.932-3.042-8.762h143.051V324.055z
	 M26.693,331.446c0-4.076,3.315-7.393,7.392-7.393H61.15c-1.241,2.831-2.24,5.767-3.044,8.77c-0.103,0.379-0.204,0.758-0.299,1.141
	c-0.161,0.655-0.315,1.312-0.456,1.973c-0.12,0.558-0.226,1.12-0.33,1.683c-0.075,0.407-0.172,0.809-0.239,1.219H34.085
	C30.008,338.838,26.693,335.522,26.693,331.446z M118.022,384.337c-18.701,0-34.048-14.591-35.278-32.987
	c-0.001-0.013,0-0.025,0-0.039c-0.025-0.386-0.041-0.725-0.056-1.056c-0.016-0.428-0.032-0.855-0.032-1.288
	c0-0.645,0.02-1.287,0.055-1.924c0.013-0.236,0.036-0.468,0.053-0.703c0.029-0.395,0.059-0.79,0.1-1.182
	c0.032-0.3,0.075-0.597,0.113-0.894c0.041-0.315,0.084-0.631,0.135-0.945c0.056-0.344,0.119-0.685,0.184-1.025
	c0.048-0.251,0.097-0.502,0.151-0.751c0.083-0.386,0.171-0.77,0.267-1.152c0.045-0.182,0.093-0.362,0.141-0.543
	c0.117-0.438,0.238-0.873,0.371-1.303c0.025-0.084,0.053-0.167,0.08-0.25c1.85-5.83,5.176-11.005,9.533-15.097
	c0.176-0.164,0.347-0.331,0.527-0.492c0.235-0.212,0.476-0.416,0.717-0.622c0.247-0.211,0.495-0.42,0.749-0.626
	c6.073-4.909,13.793-7.856,22.192-7.856s16.118,2.948,22.192,7.856c0.254,0.206,0.502,0.415,0.749,0.626
	c0.24,0.206,0.482,0.41,0.717,0.622c0.179,0.161,0.351,0.328,0.527,0.492c4.358,4.091,7.683,9.266,9.533,15.097
	c0.027,0.084,0.055,0.165,0.08,0.25c0.133,0.431,0.254,0.866,0.371,1.303c0.048,0.18,0.096,0.362,0.141,0.543
	c0.096,0.382,0.184,0.766,0.267,1.152c0.053,0.25,0.103,0.501,0.151,0.751c0.065,0.34,0.128,0.682,0.184,1.025
	c0.051,0.314,0.092,0.629,0.135,0.945c0.04,0.298,0.081,0.594,0.113,0.894c0.041,0.392,0.072,0.787,0.1,1.182
	c0.017,0.235,0.041,0.467,0.053,0.703c0.035,0.639,0.055,1.28,0.055,1.924c0,0.426-0.017,0.846-0.032,1.268
	c-0.015,0.338-0.032,0.686-0.057,1.084c-0.001,0.013,0,0.025,0,0.037C152.066,369.75,136.72,384.337,118.022,384.337z
	 M374.818,384.337c-18.701,0-34.049-14.591-35.278-32.987c-0.001-0.013,0-0.025,0-0.039c-0.025-0.386-0.041-0.725-0.056-1.057
	c-0.016-0.428-0.032-0.855-0.032-1.287c0-0.645,0.02-1.287,0.055-1.924c0.013-0.236,0.036-0.468,0.053-0.703
	c0.029-0.395,0.059-0.79,0.1-1.182c0.032-0.3,0.075-0.597,0.113-0.894c0.041-0.315,0.084-0.631,0.135-0.945
	c0.056-0.344,0.119-0.685,0.184-1.025c0.048-0.251,0.097-0.502,0.151-0.751c0.083-0.386,0.171-0.77,0.267-1.152
	c0.045-0.182,0.093-0.362,0.141-0.543c0.117-0.438,0.238-0.873,0.371-1.303c0.025-0.084,0.053-0.167,0.08-0.25
	c1.85-5.83,5.176-11.005,9.533-15.097c0.176-0.164,0.347-0.331,0.527-0.492c0.235-0.212,0.476-0.416,0.717-0.622
	c0.247-0.211,0.495-0.42,0.749-0.626c6.073-4.909,13.793-7.856,22.192-7.856s16.118,2.948,22.192,7.856
	c0.254,0.206,0.502,0.415,0.749,0.626c0.24,0.206,0.482,0.41,0.717,0.622c0.179,0.161,0.351,0.328,0.527,0.492
	c4.358,4.091,7.683,9.266,9.533,15.097c0.027,0.084,0.055,0.165,0.08,0.25c0.133,0.431,0.254,0.866,0.371,1.303
	c0.048,0.18,0.096,0.362,0.141,0.543c0.096,0.382,0.184,0.766,0.267,1.152c0.053,0.25,0.103,0.501,0.151,0.751
	c0.065,0.34,0.128,0.682,0.184,1.025c0.051,0.314,0.092,0.629,0.135,0.945c0.04,0.298,0.081,0.594,0.113,0.894
	c0.041,0.392,0.072,0.787,0.1,1.182c0.017,0.235,0.041,0.467,0.053,0.703c0.035,0.639,0.055,1.28,0.055,1.924
	c0,0.426-0.017,0.846-0.032,1.268c-0.015,0.338-0.032,0.685-0.057,1.082c-0.001,0.013,0,0.025,0,0.039
	C408.861,369.75,393.516,384.337,374.818,384.337z M477.915,338.838h-41.857c-0.067-0.41-0.164-0.81-0.239-1.219
	c-0.104-0.563-0.21-1.125-0.33-1.683c-0.141-0.662-0.295-1.319-0.456-1.973c-0.095-0.382-0.196-0.762-0.299-1.141
	c-0.803-3.002-1.803-5.938-3.044-8.77h46.225c4.076,0,7.393,3.315,7.393,7.392C485.307,335.523,481.992,338.838,477.915,338.838z"/>
<g>
</g>
<g>
</g>
<g>
</g>
<g>
</g>
<g>
</g>
<g>
</g>
<g>
</g>
<g>
</g>
<g>
</g>
<g>
</g>
<g>
</g>
<g>
</g>
<g>
</g>
<g>
</g>
<g>
</g>
</svg>
