<?xml version="1.0" encoding="iso-8859-1"?>
<!-- Generator: Adobe Illustrator 19.0.0, SVG Export Plug-In . SVG Version: 6.00 Build 0)  -->
<svg version="1.1" id="Layer_1" xmlns="http://www.w3.org/2000/svg" xmlns:xlink="http://www.w3.org/1999/xlink" x="0px" y="0px"
	 viewBox="0 0 512.001 512.001" style="enable-background:new 0 0 512.001 512.001;" xml:space="preserve">
<polygon style="fill:#CEE8FA;" points="349.237,400.782 162.766,400.782 122.775,310.918 256.002,256.743 389.228,310.918 "/>
<path style="fill:#2D527C;" d="M447.209,386.457h-75.919l31.024-69.715c1.579-3.544,1.65-7.578,0.201-11.176
	c-1.45-3.6-4.297-6.456-7.891-7.917l-124.296-50.544v-21.836l94.82,39.131c1.788,0.738,3.637,1.087,5.459,1.087
	c5.628,0,10.967-3.339,13.247-8.864c3.017-7.313-0.464-15.688-7.778-18.706l-105.744-43.641V40.552
	c39.487,29.568,66.502,75.17,78.717,133.376c1.626,7.744,9.222,12.707,16.962,11.077c7.742-1.624,12.701-9.219,11.077-16.96
	C361.065,91.699,321.733,34.301,263.335,2.008C263.321,2,263.31,1.99,263.296,1.982c-0.023-0.013-0.047-0.021-0.069-0.034
	c-0.11-0.062-0.218-0.126-0.328-0.186c-0.175-0.096-0.361-0.163-0.539-0.252c-0.328-0.163-0.655-0.327-0.991-0.463
	c-0.251-0.102-0.507-0.18-0.762-0.268c-0.329-0.112-0.656-0.226-0.991-0.314c-0.272-0.072-0.547-0.119-0.824-0.173
	c-0.325-0.064-0.647-0.133-0.975-0.175c-0.292-0.037-0.584-0.05-0.877-0.07C256.627,0.026,256.314,0,255.999,0
	c-0.308,0-0.615,0.024-0.922,0.044c-0.299,0.02-0.599,0.033-0.898,0.072c-0.321,0.042-0.637,0.107-0.955,0.17
	c-0.281,0.056-0.563,0.105-0.841,0.178c-0.331,0.086-0.655,0.199-0.98,0.311c-0.258,0.087-0.516,0.168-0.769,0.271
	c-0.337,0.136-0.662,0.299-0.988,0.463c-0.179,0.089-0.364,0.156-0.539,0.252c-0.11,0.06-0.216,0.125-0.327,0.186
	c-0.023,0.013-0.049,0.023-0.072,0.036c-0.014,0.009-0.026,0.019-0.04,0.027c-45.1,24.985-73.478,69.011-89.354,101.602
	c-20.491,42.065-32.244,90.613-32.244,133.195v14.354c0,4.78,2.385,9.246,6.359,11.905c2.392,1.601,5.17,2.419,7.967,2.419
	c1.848,0,3.704-0.358,5.463-1.083l94.819-39.131v21.836l-124.297,50.544c-3.594,1.461-6.442,4.317-7.891,7.917
	c-1.45,3.598-1.377,7.632,0.201,11.176l31.024,69.714H64.789c-21.257,0-38.553,17.292-38.553,38.548s17.295,38.548,38.553,38.548
	h141.488c7.911,0,14.324-6.413,14.324-14.324s-6.413-14.324-14.324-14.324H64.789c-5.462,0-9.904-4.441-9.904-9.9
	c0-5.459,4.443-9.9,9.904-9.9h97.977h186.471h97.972c5.463,0,9.91,4.441,9.91,9.9c0,5.459-4.446,9.9-9.91,9.9h-52.609h-4.898h-93.59
	c-7.91,0-14.324,6.413-14.324,14.324s6.414,14.324,14.324,14.324h93.59h4.898c5.462,0,9.905,4.441,9.905,9.898
	c0,5.459-4.445,9.9-9.905,9.9h-260.87c-7.911,0-14.324,6.413-14.324,14.324s6.413,14.324,14.324,14.324h260.87
	c21.259,0,38.554-17.292,38.554-38.548c0-3.422-0.454-6.738-1.295-9.898h15.349c21.262,0,38.558-17.292,38.558-38.548
	S468.47,386.457,447.209,386.457z M241.673,41.246v153.032l-85.836,35.424C157.997,164.766,189.368,83.738,241.673,41.246z
	 M172.07,386.457l-30.192-67.843l114.123-46.407l114.123,46.407l-30.19,67.843H172.07z"/>
<g>
</g>
<g>
</g>
<g>
</g>
<g>
</g>
<g>
</g>
<g>
</g>
<g>
</g>
<g>
</g>
<g>
</g>
<g>
</g>
<g>
</g>
<g>
</g>
<g>
</g>
<g>
</g>
<g>
</g>
</svg>
