<?xml version="1.0" encoding="utf-8"?>
<!-- Generator: Adobe Illustrator 23.0.1, SVG Export Plug-In . SVG Version: 6.00 Build 0)  -->
<svg version="1.1" id="Layer_1" xmlns="http://www.w3.org/2000/svg" xmlns:xlink="http://www.w3.org/1999/xlink" x="0px" y="0px"
	 viewBox="0 0 1080 397" style="enable-background:new 0 0 1080 397;" xml:space="preserve">
<style type="text/css">
	.st0{fill:none;stroke:#161616;stroke-width:44;}
	.st1{fill:none;stroke:#111111;stroke-width:44;}
	.st2{fill:none;stroke:#000000;stroke-width:44;}
	.st3{fill:#FF7101;}
	.st4{fill:#FFFFFF;}
</style>
<path class="st0" d="M125.2,132.1H48V56.4h77.3c20.9,0,37.9,16.9,37.9,37.9l0,0C163.1,115.1,146.1,132.1,125.2,132.1z"/>
<path class="st1" d="M129.5,208.1H48v-75.7h81.6c20.9,0,37.9,16.9,37.9,37.9l0,0C167.4,191.1,150.5,208.1,129.5,208.1z"/>
<circle class="st0" cx="301.7" cy="131.3" r="73.7"/>
<circle class="st0" cx="513.1" cy="130.2" r="73.7"/>
<line class="st1" x1="605.3" y1="174.3" x2="527.9" y2="231.9"/>
<path class="st2" d="M579.7,226.5"/>
<path class="st0" d="M950.1,216.5h-33c-18.8,0-34-15.6-34-34.9V85.2c0-19.3-15.2-34.9-34-34.9h-6c-18.8,0-34,15.6-34,34.9v96.4
	c0,19.3-15.2,34.9-34,34.9l0,0c-18.8,0-34-15.6-34-34.9V88.2c0-19.3-15.2-34.9-34-34.9h-7c-18.8,0-34,15.6-34,34.9v233.9
	c0,19.3-15.2,34.9-34,34.9h-5c-18.8,0-34-15.6-34-34.9V246c0-3.6-1.1-7-3.2-9.9l-3.5-4.9"/>
<g>
	<path class="st3" d="M1020.9,238.6l14.1,1l-8.2-10.4l34.7-16.2l-36.4-15.1l7.9-11.8l-13.1,1.9l3.3-38.1l-31.3,24l-6.2-12.7
		l-4.9,12.3l-31.4-21.9l5.1,39.1l-14.1-1l8.2,10.4L914,216.3l36.4,15.1l-7.9,11.8l13.1-1.9l-3.3,38.2l31.3-24l6.2,12.7l4.9-12.3
		l31.4,21.9L1020.9,238.6z M1008.8,249.4L988.2,235l-20,15.3l2.2-25.1l-23.3-9.6l22.8-10.7l-3.3-25l20.7,14.4l20-15.3l-2.2,25.1
		l23.3,9.6l-22.8,10.7L1008.8,249.4z"/>
	<polygon class="st4" points="1005.6,224.4 1008.8,249.4 988.2,235 968.2,250.3 970.4,225.2 947.1,215.5 969.9,204.9 966.6,179.9 
		987.3,194.3 1007.3,179 1005.1,204.1 1028.4,213.7 	"/>
</g>
</svg>
