<?xml version="1.0" encoding="utf-8"?>
<!-- Generator: Adobe Illustrator 23.0.1, SVG Export Plug-In . SVG Version: 6.00 Build 0)  -->
<svg version="1.1" id="Layer_1" xmlns="http://www.w3.org/2000/svg" xmlns:xlink="http://www.w3.org/1999/xlink" x="0px" y="0px"
	 viewBox="0 0 1080 397" style="enable-background:new 0 0 1080 397;" xml:space="preserve">
<style type="text/css">
	.st0{fill:#CCCCCC;}
</style>
<g>
	<g>
		<path class="st0" d="M33,223.5V38.3h107.4c9.2,0,17.5,2,25,6.1s13.5,9.7,18,16.9s6.7,15.8,6.7,25.7c0,5.8-1.1,11.4-3.3,16.7
			c-2.2,5.3-5.3,10-9.3,14c-4,4.1-8.5,7.3-13.6,9.8c6,2.5,11.3,6,16,10.6s8.4,9.9,11.1,15.9c2.7,6,4.1,12.4,4.1,19.3
			c0,10.1-2.3,18.9-7,26.5s-10.9,13.5-18.7,17.6s-16.4,6.2-25.9,6.2H33V223.5z M77.4,112.1h50c3.5,0,6.7-0.8,9.4-2.5
			s4.9-3.9,6.5-6.6s2.4-5.8,2.4-9.1c0-3.5-0.8-6.7-2.4-9.4c-1.6-2.7-3.8-4.9-6.5-6.6s-5.9-2.5-9.4-2.5h-50V112.1z M77.4,186.7H132
			c3.7,0,7-0.9,9.9-2.6c2.9-1.8,5.2-4.1,7-7.1s2.6-6.3,2.6-9.8c0-3.7-0.9-7-2.6-9.9c-1.8-2.9-4.1-5.2-7-7s-6.2-2.6-9.9-2.6H77.4
			V186.7z"/>
		<g>
			<path class="st0" d="M52.8,331.5c-3.6,0-6.9-0.8-9.8-2.5c-2.9-1.7-5.3-4-7-6.8s-2.6-6.1-2.6-9.7c0-2.7,0.6-5.2,1.8-7.6
				s2.8-4.4,4.8-6.1c-2-1.7-3.5-3.6-4.6-5.9s-1.7-4.7-1.7-7.2c0-3.5,0.9-6.7,2.6-9.5c1.7-2.8,4-5,6.9-6.6s6.1-2.4,9.6-2.4h27.1v13
				L55,280.1c-1.2,0-2.2,0.3-3.2,0.8c-1,0.6-1.8,1.3-2.3,2.2c-0.6,0.9-0.9,2-0.9,3.2s0.3,2.2,0.9,3.2c0.6,1,1.4,1.7,2.3,2.2
				c1,0.5,2.1,0.8,3.2,0.8h21.6v12.9H55.5c-1.3,0-2.5,0.3-3.5,0.9s-1.9,1.4-2.5,2.4s-0.9,2.1-0.9,3.4c0,1.2,0.3,2.3,0.9,3.4
				c0.6,1,1.4,1.8,2.5,2.3c1,0.6,2.2,0.8,3.5,0.8h24.3v13L52.8,331.5L52.8,331.5z"/>
			<path class="st0" d="M134.5,332.6c-3,0-5.7-0.7-8.1-2.1s-4.1-3.5-5.1-6.5l-19.6-56.9h16.6l14.9,49.8c0.1,0.4,0.3,0.6,0.5,0.8
				c0.2,0.2,0.5,0.3,0.8,0.3s0.6-0.1,0.8-0.3c0.2-0.2,0.4-0.5,0.5-0.8l15.2-49.8h16.3L147.8,324c-1,2.9-2.8,5-5.1,6.4
				C140.2,331.9,137.5,332.6,134.5,332.6z"/>
			<path class="st0" d="M208.3,331.5c-3.6,0-6.9-0.8-9.8-2.5c-2.9-1.7-5.3-4-7-6.8s-2.6-6.1-2.6-9.7c0-2.7,0.6-5.2,1.8-7.6
				s2.8-4.4,4.8-6.1c-2-1.7-3.5-3.6-4.6-5.9s-1.7-4.7-1.7-7.2c0-3.5,0.9-6.7,2.6-9.5c1.7-2.8,4-5,6.9-6.6s6.1-2.4,9.6-2.4h27.1v13
				l-24.7-0.1c-1.2,0-2.2,0.3-3.2,0.8c-1,0.6-1.8,1.3-2.3,2.2s-0.9,2-0.9,3.2s0.3,2.2,0.9,3.2c0.6,1,1.4,1.7,2.3,2.2
				c1,0.5,2.1,0.8,3.2,0.8h21.6v12.9H211c-1.3,0-2.5,0.3-3.5,0.9s-1.9,1.4-2.5,2.4s-0.9,2.1-0.9,3.4c0,1.2,0.3,2.3,0.9,3.4
				c0.6,1,1.4,1.8,2.5,2.3c1,0.6,2.2,0.8,3.5,0.8h24.3v13L208.3,331.5L208.3,331.5z"/>
			<path class="st0" d="M308.1,332.6c-3.9,0-7.3-0.8-10.4-2.5s-5.5-4-7.3-7s-2.7-6.4-2.7-10.2v-28.1c0-1-0.2-1.9-0.7-2.7
				c-0.5-0.8-1.1-1.4-1.9-1.9s-1.7-0.7-2.7-0.7s-1.9,0.2-2.7,0.7c-0.8,0.5-1.4,1.1-1.9,1.9s-0.7,1.7-0.7,2.7v46.8H262v-45.7
				c0-3.9,0.9-7.3,2.6-10.2c1.7-2.9,4.2-5.3,7.3-7c3.1-1.7,6.6-2.6,10.4-2.6c3.9,0,7.4,0.9,10.5,2.6s5.5,4,7.3,7s2.7,6.3,2.7,10.2
				V314c0,1,0.2,1.9,0.7,2.7c0.5,0.8,1.1,1.5,1.9,1.9c0.8,0.5,1.6,0.7,2.5,0.7c1,0,1.9-0.2,2.7-0.7c0.8-0.5,1.5-1.1,2-1.9
				s0.7-1.7,0.7-2.7v-46.8h15v45.7c0,3.8-0.9,7.2-2.7,10.2c-1.8,3-4.2,5.3-7.3,7C315.4,331.8,311.9,332.6,308.1,332.6z"/>
			<path class="st0" d="M390.5,331.5c-3.9,0-7.4-0.9-10.3-2.6c-3-1.7-5.3-4.1-7-7s-2.5-6.2-2.5-9.8v-32h-17.5v-12.9h50.3v12.9h-17.4
				v33.3c0,1.4,0.5,2.6,1.5,3.7c1,1,2.2,1.6,3.6,1.6h5.1v12.9h-5.8L390.5,331.5L390.5,331.5z"/>
			<path class="st0" d="M429.2,331.5v-12.9h27.5c1.2,0,2.3-0.3,3.3-0.9s1.8-1.4,2.3-2.4c0.6-1,0.9-2,0.9-3.2s-0.3-2.3-0.9-3.3
				s-1.4-1.8-2.3-2.4c-1-0.6-2.1-0.9-3.3-0.9h-9.9c-3.7,0-7.1-0.8-10.2-2.3s-5.5-3.7-7.3-6.5s-2.7-6.2-2.7-10.2
				c0-3.9,0.9-7.3,2.6-10.2s4-5.1,7-6.8c2.9-1.6,6.2-2.4,9.7-2.4h28.4V280h-26.6c-1.1,0-2.1,0.3-3,0.8c-0.9,0.6-1.6,1.3-2.1,2.2
				s-0.7,1.9-0.7,3s0.2,2.1,0.7,3s1.2,1.6,2.1,2.2s1.9,0.8,3,0.8h10.4c4.1,0,7.7,0.8,10.7,2.3c3,1.6,5.4,3.7,7.1,6.5
				s2.5,6.1,2.5,9.8c0,4.4-0.9,8.2-2.6,11.3c-1.7,3.1-4.1,5.5-7,7.1s-6.2,2.4-9.7,2.4h-29.9V331.5z"/>
		</g>
		<path class="st0" d="M921.2,206.7c15.8-3.5,27.1-6.5,37.6-10.4c-1.3-2.4-2.9-5-4.9-7.9h-25.2c-2.8,0-5.4-0.7-7.7-2.1
			c-2.3-1.4-4.1-3.2-5.4-5.5c-1.3-2.3-2-4.9-2-7.7V92c0-11.1-2.6-20.9-7.7-29.4c-5.1-8.5-12.1-15.2-20.8-20.1c-2.9-1.6-5.9-3-9-4
			c-6.4-2.2-13.4-3.4-21-3.4c-11,0-20.9,2.5-29.8,7.4c-8.9,4.9-15.9,11.6-21.1,20.1c-5.1,8.5-7.6,18.3-7.6,29.4v80.7
			c0,3-0.7,5.7-2.1,7.9c-1.4,2.3-3.3,4.1-5.7,5.4c-2.4,1.3-5,2-7.8,2c-2.6,0-5.1-0.7-7.3-2s-4-3.1-5.4-5.4c-1.4-2.3-2.1-4.9-2.1-7.9
			V92c0-11.1-2.6-20.9-7.7-29.4c-5.1-8.5-12.1-15.2-20.9-20.1c-8.8-4.9-18.9-7.4-30.2-7.4c-11.1,0-21.1,2.5-30,7.4
			s-15.9,11.6-20.9,20.1S649,80.9,649,92v233.5c0,2.8-0.7,5.4-2,7.7c-1.3,2.3-3.1,4.1-5.4,5.5c-2.3,1.4-4.9,2.1-7.6,2.1
			c-2.8,0-5.4-0.7-7.7-2.1s-4.2-3.3-5.5-5.5c-1.4-2.3-2.1-4.9-2.1-7.7v-80.7c0-11.6-2.6-21.7-7.8-30.2c-2-3.2-4.3-6.2-6.9-8.9
			l21.7-16.1l-15.3-20.5l-0.1,0.1c5-11.6,7.8-24.5,7.8-38c0-53-43.1-96.2-96.1-96.2s-96.2,43.1-96.2,96.2s43.1,96.2,96.2,96.2
			c3.6,0,7.1-0.2,10.6-0.6l-0.1,0.1l15.2,20.6l22.8-16.9c1,0.9,1.9,1.9,2.6,3.2c1.4,2.3,2.1,4.9,2.1,7.9v80.7
			c0,11.1,2.6,20.9,7.7,29.4c5.1,8.5,12.1,15.1,20.9,20.1c8.8,4.9,18.9,7.4,30.2,7.4c11.1,0,21.1-2.5,30-7.4
			c8.9-5,15.9-11.6,20.9-20.1s7.5-18.3,7.5-29.4V88.8c0-2.8,0.7-5.4,2-7.7c1.3-2.3,3.1-4.2,5.4-5.5c2.3-1.4,4.9-2.1,7.7-2.1
			s5.4,0.7,7.7,2.1s4.2,3.3,5.5,5.5c1.4,2.3,2.1,4.9,2.1,7.7v80.7c0,11.6,2.6,21.7,7.8,30.2s12.3,15.1,21.2,19.8s18.7,7.1,29.5,7.1
			s20.5-2.4,29.4-7.1c8.8-4.8,15.9-11.4,21.2-19.8c5.3-8.5,7.9-18.5,7.9-30.2v-81c0-2.8,0.7-5.3,2.1-7.5c1.4-2.2,3.3-4,5.7-5.4
			s4.9-2.1,7.6-2.1c2.8,0,5.4,0.7,7.6,2.1c2.3,1.4,4.1,3.2,5.4,5.4c1.3,2.2,2,4.7,2,7.5v81.4c0,11.1,2.5,20.9,7.6,29.4
			c5,8.5,12,15.2,20.9,20.1c2.9,1.7,6,3,9.2,4.1c6.5,2.2,13.4,3.3,20.8,3.3h25c2.4-3.5,4.3-6.6,5.7-9.5
			C948.8,213.4,937.4,210.2,921.2,206.7z M522.1,183.2c-28.7,0-52.1-23.4-52.1-52.1S493.3,79,522.1,79c28.7,0,52,23.4,52,52.1
			S550.8,183.2,522.1,183.2z"/>
		<path class="st0" d="M978.1,188.5v38.4h-24.3c2.4-3.5,4.3-6.6,5.7-9.5c-10.6-4-22-7.1-38.2-10.6c15.8-3.5,27.1-6.5,37.6-10.4
			c-1.3-2.4-2.9-5-4.9-7.9H978.1z"/>
		<g>
			<path class="st0" d="M310.3,226.8c-53,0-96.2-43.1-96.2-96.2s43.1-96.2,96.2-96.2s96.2,43.1,96.2,96.2S363.4,226.8,310.3,226.8z
				 M310.3,78.6c-28.7,0-52.1,23.4-52.1,52.1s23.4,52.1,52.1,52.1s52.1-23.4,52.1-52.1C362.4,101.9,339,78.6,310.3,78.6z"/>
		</g>
	</g>
	<g>
		<path class="st0" d="M890.8,229.7c55.1-12.8,69.5,5.2,47.1,58.5c22.4-53.3,42.1-52.7,64.3,1.9c-22.1-54.6-10.1-68.2,39.1-44.3
			c-49.2-24-46.9-40.8,7.7-54.8c-54.6,14-63.1-5.2-28-62.5c-35.2,57.3-60.8,58.5-83.4,4.1c22.6,54.4,5.5,68.9-55.7,47.1
			C943.1,201.6,945.8,216.9,890.8,229.7z"/>
		<g>
			<path class="st0" d="M955,191.2c12.4,13.4,10,20.2-7.7,22c17.7-1.8,20.8,3.8,10.1,18.2c10.8-14.4,16.3-13.1,18.1,4.2
				c-1.8-17.4,3.1-19.3,15.7-6.1c-12.6-13.1-9-18.4,11.9-17.3c-20.9-1.2-25.4-8.1-14.8-22.7c-10.6,14.5-17.3,12-21.5-8.4
				C971,201.5,967.4,204.6,955,191.2z"/>
		</g>
	</g>
</g>
</svg>
