<?xml version="1.0" encoding="utf-8"?>
<!-- Generator: Adobe Illustrator 23.0.1, SVG Export Plug-In . SVG Version: 6.00 Build 0)  -->
<svg version="1.1" id="Layer_1" xmlns="http://www.w3.org/2000/svg" xmlns:xlink="http://www.w3.org/1999/xlink" x="0px" y="0px"
	 viewBox="0 0 1080 397" style="enable-background:new 0 0 1080 397;" xml:space="preserve">
<style type="text/css">
	.st0{fill:none;stroke:#000000;stroke-width:36;stroke-miterlimit:10;}
	.st1{fill:none;stroke:#000000;stroke-width:41;stroke-miterlimit:10;}
	.st2{fill:none;stroke:#000000;stroke-width:41;stroke-linejoin:bevel;stroke-miterlimit:10;}
</style>
<path class="st0" d="M174.2,132.1H97V56.4h77.3c20.9,0,37.9,16.9,37.9,37.9v0C212.1,115.1,195.1,132.1,174.2,132.1z"/>
<path class="st0" d="M178.5,208.1H97v-75.7h81.6c20.9,0,37.9,16.9,37.9,37.9v0C216.4,191.1,199.5,208.1,178.5,208.1z"/>
<circle class="st1" cx="350.7" cy="131.3" r="73.7"/>
<circle class="st1" cx="562.1" cy="130.2" r="73.7"/>
<line class="st0" x1="654.3" y1="174.3" x2="576.9" y2="231.9"/>
<path class="st0" d="M628.7,226.5"/>
<path class="st2" d="M632,223.4c1.3,2.3,1.3,3.3,1.8,5.1s0.4,4.3,0.4,4.3v4.4c0.2,6.3,0,84.6,0,84.6s0.6,39.7,37.7,39.7
	c37.1,0,39.5-39.6,40-43c0.4-3,0.1-188.2,0-228.6c0-7.1,2.2-14.1,6.4-19.8c5.8-7.7,16.1-16.3,33.5-16.3c8.6,0,16.4,1.8,21.7,4.5
	c11.2,5.6,18.2,17.2,18.2,29.8v95c0,20.1,16.3,36.4,36.4,36.4h0c20.1,0,36.4-16.3,36.4-36.4V92.4c0-21.8,17.6-39.4,39.4-39.4h0
	c21.8,0,39.4,17.6,39.4,39.4v73.7c0,22.8,18.5,41.3,41.3,41.3h23.5"/>
</svg>
